<svg xmlns="http://www.w3.org/2000/svg" width="112" height="112" fill="none" aria-label="Unobravo" viewBox="-14.5 -8 112 112"><path fill="#ffa575" d="M24.384 79.216c0-1.002.094-1.985.267-2.943v-.007c.007-.068.024-.136.038-.2q.047-.241.1-.483l.042-.184q.055-.245.12-.486c1.986-7.715 8.703-17.307 16.554-25.668-7.976-8.498-17.127-15.727-23.682-18.436l-.07-.03-.051-.021a11.6 11.6 0 0 0-4.365-.85c-5.084 0-9.39 3.27-10.867 7.784-.007.017-.01.037-.018.054l-.03.095C.784 42.916 0 48.208 0 55.257c0 22.491 18.522 40.726 41.391 40.787h.11c-9.455 0-17.12-7.532-17.12-16.824z"/><path fill="#ff5722" d="m80.583 37.848-.032-.095-.017-.051c-1.477-4.517-5.783-7.784-10.867-7.784-1.546 0-3.02.303-4.365.85l-.052.02q-.037.015-.07.031c-6.554 2.709-15.706 9.939-23.682 18.436 7.852 8.365 14.569 17.953 16.554 25.669q.066.244.121.489l.042.18q.052.24.1.483l.041.2v.007c.166.955.263 1.937.263 2.944 0 9.292-7.664 16.824-17.12 16.824h.11C64.479 95.993 83 77.755 83 55.268c0-7.05-.781-12.339-2.42-17.417z"/><path fill="#ff835c" d="M58.642 79.205a16.6 16.6 0 0 0-.266-2.943v-.007c-.007-.068-.025-.136-.038-.2a20 20 0 0 0-.1-.483l-.042-.18q-.055-.245-.121-.49c-1.986-7.715-8.703-17.307-16.554-25.668-7.852 8.364-14.568 17.953-16.554 25.668l-.12.486c-.015.061-.032.123-.042.184q-.054.24-.1.482c-.014.068-.032.136-.042.2v.008a17 17 0 0 0-.263 2.943c0 9.293 7.665 16.825 17.121 16.825s17.121-7.532 17.121-16.825"/><path fill="#ffa575" d="M11.417 22.433c6.304 0 11.414-5.022 11.414-11.217C22.83 5.022 17.72 0 11.417 0S.003 5.022.003 11.216c0 6.195 5.11 11.217 11.414 11.217"/><path fill="#ff5722" d="M71.605 22.433c6.303 0 11.414-5.022 11.414-11.217C83.019 5.022 77.909 0 71.605 0S60.19 5.022 60.19 11.216c0 6.195 5.11 11.217 11.414 11.217"/></svg>
