<svg width="478" height="97" viewBox="0 0 478 97" fill="none" xmlns="http://www.w3.org/2000/svg">
<path d="M151.656 29.9247C151.494 29.9077 151.331 29.8975 151.165 29.8975C148.682 29.8975 146.669 31.8757 146.669 34.3161V52.4289C146.669 57.9964 142.093 62.5271 136.465 62.5271C130.838 62.5271 126.262 57.9964 126.262 52.4289V34.3161C126.262 31.8757 124.249 29.8975 121.765 29.8975C119.282 29.8975 117.269 31.8757 117.269 34.3161V52.4289C117.269 62.8704 125.881 71.3643 136.465 71.3643C140.401 71.3643 144.064 70.1883 147.115 68.1727C147.841 69.6547 149.38 70.6845 151.165 70.6845C153.648 70.6845 155.661 68.7064 155.661 66.2659V34.3195C155.661 32.0422 153.908 30.1694 151.656 29.9281V29.9247Z" fill="#232323"></path>
<path d="M184.552 29.2178C180.616 29.2178 176.953 30.3938 173.903 32.4094C173.177 30.9241 171.637 29.8976 169.853 29.8976C167.369 29.8976 165.356 31.8758 165.356 34.3162V66.2626C165.356 68.5399 167.11 70.4127 169.361 70.654C169.524 70.671 169.687 70.6812 169.853 70.6812C172.336 70.6812 174.349 68.7031 174.349 66.2626V48.1498C174.349 42.5824 178.925 38.0516 184.552 38.0516C190.18 38.0516 194.756 42.5824 194.756 48.1498V66.2626C194.756 68.7031 196.769 70.6812 199.252 70.6812C201.736 70.6812 203.749 68.7031 203.749 66.2626V48.1498C203.749 37.7083 195.136 29.2144 184.552 29.2144V29.2178Z" fill="#232323"></path>
<path d="M340.598 31.4849C337.817 30.0064 334.669 29.2246 331.491 29.2246C327.565 29.2246 323.916 30.3938 320.876 32.389C320.146 30.9173 318.614 29.9044 316.836 29.9044C314.352 29.9044 312.339 31.8826 312.339 34.323V66.2695C312.339 68.7099 314.352 70.6881 316.836 70.6881C319.319 70.6881 321.332 68.7099 321.332 66.2695V48.041C321.332 42.5382 325.887 38.0584 331.491 38.0584C333.203 38.0584 334.825 38.4595 336.316 39.2548C338.498 40.4173 341.227 39.6185 342.41 37.4738C343.593 35.3291 342.78 32.6473 340.598 31.4849Z" fill="#232323"></path>
<path d="M232.784 29.2246C220.958 29.2246 211.339 38.677 211.339 50.2979C211.339 61.9188 220.958 71.3712 232.784 71.3712C244.609 71.3712 254.228 61.9188 254.228 50.2979C254.228 38.677 244.609 29.2246 232.784 29.2246ZM232.784 62.534C225.918 62.534 220.332 57.0448 220.332 50.2979C220.332 43.5511 225.918 38.0618 232.784 38.0618C239.649 38.0618 245.235 43.5511 245.235 50.2979C245.235 57.0448 239.649 62.534 232.784 62.534Z" fill="#232323"></path>
<path d="M283.294 29.22C278.652 29.22 274.356 30.6815 270.842 33.1525V13.9214C270.842 11.4844 268.829 9.50622 266.346 9.50622C263.862 9.50622 261.849 11.4844 261.849 13.9214V66.2716C261.849 68.7086 263.862 70.6868 266.346 70.6868C268.455 70.6868 270.219 69.2593 270.704 67.3389C274.242 69.8711 278.593 71.3666 283.294 71.3666C295.119 71.3666 304.738 61.9142 304.738 50.2933C304.738 38.6724 295.119 29.22 283.294 29.22ZM283.294 62.5294C276.428 62.5294 270.842 57.0401 270.842 50.2933C270.842 43.5464 276.428 38.0572 283.294 38.0572C290.159 38.0572 295.745 43.5464 295.745 50.2933C295.745 57.0401 290.159 62.5294 283.294 62.5294Z" fill="#232323"></path>
<path d="M367.346 29.2246C355.521 29.2246 345.902 38.677 345.902 50.2979C345.902 61.9188 355.521 71.3712 367.346 71.3712C372.047 71.3712 376.398 69.8723 379.936 67.3435C380.424 69.2673 382.188 70.6915 384.294 70.6915C386.778 70.6915 388.791 68.7133 388.791 66.2729V50.6956C388.791 50.6514 388.784 50.6072 388.784 50.563C388.784 50.4747 388.791 50.3863 388.791 50.2979C388.791 38.677 379.172 29.2246 367.346 29.2246ZM367.346 62.534C360.481 62.534 354.895 57.0448 354.895 50.2979C354.895 43.5511 360.481 38.0618 367.346 38.0618C374.212 38.0618 379.798 43.5511 379.798 50.2979C379.798 57.0448 374.212 62.534 367.346 62.534Z" fill="#232323"></path>
<path d="M456.561 29.2246C444.735 29.2246 435.117 38.677 435.117 50.2979C435.117 61.9188 444.735 71.3712 456.561 71.3712C468.387 71.3712 478.005 61.9188 478.005 50.2979C478.005 38.677 468.387 29.2246 456.561 29.2246ZM456.561 62.534C449.695 62.534 444.109 57.0448 444.109 50.2979C444.109 43.5511 449.695 38.0618 456.561 38.0618C463.427 38.0618 469.013 43.5511 469.013 50.2979C469.013 57.0448 463.427 62.534 456.561 62.534Z" fill="#232323"></path>
<path d="M429.05 29.6569C426.792 28.644 424.125 29.6195 423.091 31.839L412.005 55.6722L400.83 31.7982C399.792 29.5821 397.122 28.61 394.867 29.6297C392.612 30.6493 391.623 33.2733 392.66 35.4894L407.931 68.1191C408.664 69.686 410.259 70.692 412.016 70.692H412.023C413.78 70.692 415.374 69.6826 416.108 68.1122L431.271 35.5166C432.302 33.2971 431.309 30.6765 429.05 29.6602V29.6569Z" fill="#232323"></path>
<path d="M24.3844 79.2163C24.3844 78.2136 24.4778 77.2313 24.6507 76.2728V76.266C24.6577 76.1981 24.6749 76.1301 24.6888 76.0655C24.7199 75.9057 24.7545 75.7426 24.7891 75.5828C24.8029 75.5217 24.8167 75.4605 24.8306 75.3993C24.8686 75.2362 24.9067 75.073 24.9517 74.9132C26.937 67.1977 33.6539 57.606 41.5054 49.2446C33.5294 40.7473 24.3775 33.5178 17.8231 30.8089C17.7989 30.7987 17.7747 30.7885 17.7539 30.7783C17.7366 30.7715 17.7193 30.7647 17.702 30.7579C16.3566 30.2106 14.8831 29.9081 13.3371 29.9081C8.25265 29.9081 3.94647 33.1779 2.46957 37.6917C2.46266 37.7087 2.4592 37.7291 2.45229 37.7461C2.44191 37.7766 2.43152 37.8106 2.42115 37.8412C0.785143 42.9158 0 48.2079 0 55.2573C0 77.748 18.5218 95.9832 41.3912 96.0444C41.4293 96.0444 41.4639 96.0444 41.5019 96.0444C32.0456 96.0444 24.3809 88.5123 24.3809 79.2197L24.3844 79.2163Z" fill="#FFA575"></path>
<path d="M80.5826 37.848C80.5722 37.8174 80.5618 37.7834 80.5514 37.7529C80.5445 37.7359 80.5411 37.7189 80.5342 37.7019C79.0573 33.1847 74.7511 29.9183 69.6667 29.9183C68.1206 29.9183 66.6472 30.2209 65.3017 30.7681C65.3017 30.7681 65.2671 30.7817 65.2498 30.7885C65.2256 30.7987 65.2014 30.8089 65.1806 30.819C58.6262 33.528 49.4743 40.7575 41.4984 49.2548C49.3498 57.6196 56.0667 67.2079 58.0521 74.9235C58.097 75.0866 58.1351 75.2498 58.1731 75.4129C58.187 75.4741 58.2008 75.5353 58.2147 75.5931C58.2492 75.7528 58.2838 75.9125 58.315 76.0757C58.3288 76.1437 58.3426 76.2117 58.3565 76.2762V76.283C58.5225 77.2381 58.6193 78.2204 58.6193 79.2265C58.6193 88.5192 50.9547 96.0512 41.4984 96.0512C41.5364 96.0512 41.571 96.0512 41.609 96.0512C64.4785 95.9934 83.0003 77.7548 83.0003 55.2675C83.0003 48.2181 82.2186 42.9294 80.5791 37.8514L80.5826 37.848Z" fill="#FF5722"></path>
<path d="M58.642 79.2052C58.642 78.2025 58.5486 77.2202 58.3756 76.2617V76.2549C58.3687 76.187 58.3514 76.119 58.3376 76.0544C58.3064 75.8912 58.2719 75.7315 58.2373 75.5718C58.2234 75.5106 58.2096 75.4494 58.1958 75.3916C58.1577 75.2285 58.1197 75.0653 58.0747 74.9022C56.0894 67.1866 49.3724 57.5949 41.521 49.2335C33.6695 57.5983 26.9526 67.1866 24.9673 74.9022C24.9258 75.0619 24.8877 75.2251 24.8462 75.3882C24.8324 75.4494 24.8151 75.5106 24.8047 75.5718C24.7701 75.7315 24.7355 75.8912 24.7044 76.0544C24.6906 76.1224 24.6733 76.1904 24.6629 76.2549V76.2617C24.4969 77.2168 24.4 78.1991 24.4 79.2052C24.4 88.4979 32.0647 96.0299 41.521 96.0299C50.9773 96.0299 58.642 88.4979 58.642 79.2052Z" fill="#FF835C"></path>
<path d="M11.4168 22.4329C17.7206 22.4329 22.8308 17.4111 22.8308 11.2164C22.8308 5.02177 17.7206 0 11.4168 0C5.11303 0 0.0028208 5.02177 0.0028208 11.2164C0.0028208 17.4111 5.11303 22.4329 11.4168 22.4329Z" fill="#FFA575"></path>
<path d="M71.6047 22.4329C77.9084 22.4329 83.0186 17.4111 83.0186 11.2164C83.0186 5.02177 77.9084 0 71.6047 0C65.3009 0 60.1907 5.02177 60.1907 11.2164C60.1907 17.4111 65.3009 22.4329 71.6047 22.4329Z" fill="#FF5722"></path>
</svg>